<?xml version="1.0"?>
<svg xmlns="http://www.w3.org/2000/svg" width="432" height="432" viewBox="0 0 432 432">
  <switch>
    <g>
      <path d="M396.738 311.251l-14.94-8.627.93-.25a6.355 6.355 0 004.496-7.785 6.362 6.362 0 00-7.788-4.493l-13.207 3.541-20.05-11.582 23.402-6.264a6.36 6.36 0 004.496-7.785 6.362 6.362 0 00-7.791-4.499l-35.681 9.562-20.049-11.576 45.878-12.29c3.39-.912 5.404-4.396 4.493-7.785a6.361 6.361 0 00-7.785-4.499l-58.159 15.587-20.049-11.582 68.351-18.31a6.32 6.32 0 004.04-3.315c9.423 3.896 16.964 10.612 16.964 16.668 0-9.214 17.469-19.964 32.44-19.964-14.972 0-32.44-10.75-32.44-19.965 0 6.055-7.541 12.771-16.964 16.666a6.315 6.315 0 00-4.04-3.311l-68.354-18.318 20.049-11.576 58.162 15.583a6.354 6.354 0 007.785-4.495 6.353 6.353 0 00-4.493-7.784l-45.881-12.294 20.052-11.576 35.681 9.561a6.359 6.359 0 007.791-4.495 6.36 6.36 0 00-4.496-7.785l-23.405-6.27 20.053-11.578 13.207 3.541a6.36 6.36 0 007.785-4.498 6.355 6.355 0 00-4.493-7.785l-.93-.247 14.94-8.627c4.093-2.363 5.646-7.333 3.472-11.103-2.18-3.771-7.26-4.91-11.353-2.546l-14.938 8.624.247-.927a6.36 6.36 0 00-4.493-7.787 6.362 6.362 0 00-7.788 4.497l-3.539 13.206-20.049 11.579 6.271-23.403a6.362 6.362 0 00-4.497-7.787 6.36 6.36 0 00-7.785 4.497l-9.559 35.683-20.052 11.575 12.29-45.876a6.354 6.354 0 00-4.493-7.785 6.353 6.353 0 00-7.785 4.495l-15.585 58.159-20.049 11.575 18.313-68.352a6.332 6.332 0 00-.848-5.154c8.084-6.212 17.669-9.385 22.914-6.358-7.979-4.605-8.555-25.107-1.071-38.074-7.483 12.966-25.526 22.717-33.509 18.11 5.242 3.027 7.291 12.916 5.956 23.023a6.33 6.33 0 00-4.894 1.842L223.876 152.5v-23.152l42.577-42.574a6.357 6.357 0 10-8.989-8.991l-33.588 33.586V88.215l26.125-26.122a6.364 6.364 0 000-8.991 6.361 6.361 0 00-8.993 0l-17.132 17.133V47.082l9.672-9.667a6.358 6.358 0 00-8.992-8.99l-.68.676V11.85c0-4.726-3.529-8.557-7.877-8.557-4.353 0-7.881 3.832-7.881 8.557v17.251l-.68-.676a6.35 6.35 0 00-8.988 0 6.356 6.356 0 000 8.99l9.668 9.667v23.151l-17.132-17.13a6.358 6.358 0 00-8.99 0 6.363 6.363 0 000 8.991l26.122 26.119v23.155l-33.586-33.586a6.358 6.358 0 00-8.99 8.991l42.576 42.574v23.152l-50.039-50.037a6.322 6.322 0 00-4.89-1.842c-1.333-10.107.711-19.996 5.954-23.023-7.978 4.606-26.023-5.144-33.509-18.11 7.486 12.966 6.908 33.468-1.07 38.074 5.244-3.026 14.832.146 22.914 6.358a6.333 6.333 0 00-.848 5.154l18.315 68.352-20.051-11.572-15.584-58.162a6.353 6.353 0 00-7.784-4.495 6.357 6.357 0 00-4.498 7.785l12.294 45.877-20.05-11.575-9.559-35.683a6.36 6.36 0 00-7.785-4.497 6.36 6.36 0 00-4.495 7.787l6.27 23.405-20.049-11.578-3.54-13.208a6.36 6.36 0 00-7.788-4.494 6.352 6.352 0 00-4.492 7.784l.249.929-14.939-8.624c-4.094-2.364-9.176-1.223-11.353 2.544-2.177 3.771-.622 8.743 3.47 11.103l14.938 8.628-.927.245a6.357 6.357 0 103.293 12.283l13.206-3.541 20.051 11.578-23.402 6.27a6.357 6.357 0 00-4.495 7.785 6.355 6.355 0 007.787 4.495l35.681-9.561 20.05 11.576-45.876 12.294a6.354 6.354 0 00-4.495 7.784 6.355 6.355 0 007.785 4.495l58.158-15.583 20.052 11.578-68.356 18.313a6.329 6.329 0 00-4.039 3.313c-9.421-3.896-16.961-10.611-16.961-16.666 0 9.213-17.468 19.965-32.441 19.965 14.973 0 32.441 10.75 32.441 19.964 0-6.056 7.54-12.772 16.961-16.668a6.326 6.326 0 004.039 3.315l68.356 18.31-20.051 11.582-58.161-15.587a6.362 6.362 0 00-7.785 4.499 6.356 6.356 0 004.495 7.785l45.879 12.29-20.052 11.576-35.682-9.562a6.359 6.359 0 00-7.787 4.499 6.357 6.357 0 004.495 7.785l23.402 6.27-20.049 11.576-13.208-3.541a6.361 6.361 0 00-7.788 4.493 6.36 6.36 0 004.495 7.791l.929.25-14.94 8.621c-4.092 2.362-5.645 7.332-3.47 11.105 2.177 3.768 7.259 4.905 11.353 2.543l14.939-8.627-.249.929a6.35 6.35 0 004.492 7.785 6.357 6.357 0 007.788-4.493l3.54-13.208 20.049-11.576-6.27 23.402a6.358 6.358 0 0012.28 3.291l9.562-35.686 20.05-11.576-12.292 45.881a6.356 6.356 0 004.495 7.785 6.354 6.354 0 007.784-4.494l15.584-58.158 20.051-11.576-18.315 68.354a6.327 6.327 0 00.848 5.154c-8.083 6.206-17.67 9.382-22.914 6.357 7.981 4.604 8.556 25.108 1.07 38.072 7.486-12.964 25.531-22.717 33.509-18.107-5.242-3.03-7.287-12.917-5.954-23.024a6.327 6.327 0 004.89-1.84L208.12 279.5v23.151l-42.578 42.577a6.363 6.363 0 000 8.993 6.364 6.364 0 008.991 0l33.586-33.591v23.158l-26.124 26.119a6.357 6.357 0 008.99 8.986l17.134-17.132v23.158l-9.669 9.666a6.358 6.358 0 000 8.992 6.35 6.35 0 008.988 0l.681-.679v17.248c0 4.726 3.526 8.558 7.879 8.558 4.354 0 7.877-3.832 7.877-8.558v-17.248l.68.679a6.355 6.355 0 008.992 0 6.36 6.36 0 000-8.992l-9.672-9.666v-23.158l17.132 17.132a6.357 6.357 0 008.993-8.986l-26.125-26.119V320.63l33.588 33.591a6.357 6.357 0 008.989-.006 6.354 6.354 0 000-8.987l-42.577-42.577V279.5l50.038 50.043a6.364 6.364 0 004.894 1.84c1.335 10.107-.714 19.994-5.956 23.024 7.982-4.609 26.025 5.144 33.509 18.107-7.483-12.964-6.908-33.469 1.071-38.072-5.245 3.024-14.83-.151-22.917-6.357a6.32 6.32 0 00.851-5.154l-18.313-68.354 20.049 11.576 15.585 58.158a6.353 6.353 0 007.785 4.494 6.36 6.36 0 004.496-7.785l-12.293-45.881 20.052 11.576 9.559 35.686a6.355 6.355 0 007.785 4.494 6.36 6.36 0 004.497-7.785l-6.271-23.402 20.049 11.576 3.539 13.208a6.358 6.358 0 007.788 4.493 6.352 6.352 0 004.493-7.785l-.247-.929 14.938 8.627c4.093 2.362 9.173 1.225 11.353-2.543 2.176-3.772.622-8.742-3.471-11.104zM298.177 73.669c-.996 7.022-.517 14.151 1.651 19.5-5.722.797-12.131 3.948-17.715 8.318.992-7.021.517-14.149-1.652-19.499 5.716-.798 12.125-3.948 17.716-8.319zm-164.351 0c5.586 4.37 11.996 7.521 17.712 8.319-2.168 5.35-2.645 12.478-1.653 19.5-5.585-4.372-11.996-7.522-17.715-8.319 2.171-5.349 2.647-12.478 1.656-19.5zm0 284.664c.993-7.024.515-14.148-1.653-19.501 5.718-.795 12.13-3.947 17.712-8.319-.991 7.025-.515 14.148 1.653 19.501-5.717.795-12.126 3.947-17.712 8.319zm30.756-231.393l43.538 43.538v31.874l-27.602-15.936-15.936-59.476zM67.711 227.182c-3.55-4.552-9.484-8.526-16.061-11.18 6.576-2.652 12.511-6.628 16.061-11.183 3.55 4.554 9.483 8.531 16.063 11.183-6.579 2.653-12.512 6.628-16.063 11.18zm45.455-11.18l59.471-15.938 27.604 15.938-27.601 15.935-59.474-15.935zm94.955 45.519l-43.538 43.54 15.935-59.477 27.604-15.936v31.873zm90.056 96.812c-5.591-4.372-12-7.524-17.716-8.319 2.169-5.353 2.645-12.476 1.652-19.501 5.584 4.372 11.999 7.524 17.715 8.319-2.168 5.347-2.647 12.477-1.651 19.501zm66.112-153.514c3.547 4.554 9.48 8.531 16.058 11.183-6.577 2.653-12.511 6.628-16.058 11.18-3.553-4.552-9.486-8.526-16.063-11.18 6.577-2.652 12.51-6.63 16.063-11.183zm-140.411-2.467v-31.874l43.538-43.538-15.933 59.474-27.605 15.938zm43.541 102.71l-43.541-43.54V229.65l27.605 15.936 15.936 59.476zm-8.055-73.125L231.762 216l27.6-15.936 59.474 15.938-59.472 15.935z"/>
    </g>
  </switch>
</svg>
